HIERARCHY
ROOT hip
{
	OFFSET 0.000000 0.000000 0.000000 
	CHANNELS 6 Xposition Yposition Zposition Xrotation Zrotation Yrotation
	JOINT abdomen
	{
		OFFSET 0.000000 3.402643 0.000000 
		CHANNELS 3 Xrotation Zrotation Yrotation
		JOINT chest
		{
			OFFSET 0.000000 8.438565 -0.680529 
			CHANNELS 3 Xrotation Zrotation Yrotation
			JOINT neck
			{
				OFFSET 0.000000 10.207942 -0.272212 
				CHANNELS 3 Xrotation Zrotation Yrotation
				JOINT head
				{
					OFFSET 0.000000 3.130431 0.000000 
					CHANNELS 3 Xrotation Zrotation Yrotation
					End Site
					{
						OFFSET 0.000000 3.130435 0.000000 
					}
				}
			}
			JOINT lCollar
			{
				OFFSET 3.470700 6.669187 -0.816635 
				CHANNELS 3 Yrotation Zrotation Xrotation
				JOINT lShldr
				{
					OFFSET 3.198488 0.000000 0.000000 
					CHANNELS 3 Zrotation Yrotation Xrotation
					JOINT lForeArm
					{
						OFFSET 10.139888 0.000000 0.000000 
						CHANNELS 3 Yrotation Zrotation Xrotation
						JOINT lHand
						{
							OFFSET 8.370511 0.000000 0.000000 
							CHANNELS 3 Zrotation Yrotation Xrotation
							End Site
							{
								OFFSET 4.083176 0.000000 0.000000 
							}
						}
					}
				}
			}
			JOINT rCollar
			{
				OFFSET -3.470700 6.669187 -0.816635 
				CHANNELS 3 Yrotation Zrotation Xrotation
				JOINT rShldr
				{
					OFFSET -3.198488 0.000000 0.000000 
					CHANNELS 3 Zrotation Yrotation Xrotation
					JOINT rForeArm
					{
						OFFSET -10.139888 0.000000 0.000000 
						CHANNELS 3 Yrotation Zrotation Xrotation
						JOINT rHand
						{
							OFFSET -8.370511 0.000000 0.000000 
							CHANNELS 3 Zrotation Yrotation Xrotation
							End Site
							{
								OFFSET -4.083176 0.000000 0.000000 
							}
						}
					}
				}
			}
		}
	}
	JOINT lThigh
	{
		OFFSET 5.308129 -1.633274 1.361059 
		CHANNELS 3 Xrotation Zrotation Yrotation
		JOINT lShin
		{
			OFFSET -2.041588 -20.007561 0.000000 
			CHANNELS 3 Xrotation Zrotation Yrotation
			JOINT lFoot
			{
				OFFSET 0.000000 -19.190928 -1.224953 
				CHANNELS 3 Xrotation Yrotation Zrotation
				End Site
				{
					OFFSET 0.000000 -2.449906 4.627600 
				}
			}
		}
	}
	JOINT rThigh
	{
		OFFSET -5.308129 -1.633274 1.361059 
		CHANNELS 3 Xrotation Zrotation Yrotation
		JOINT rShin
		{
			OFFSET 2.041588 -20.007561 0.000000 
			CHANNELS 3 Xrotation Zrotation Yrotation
			JOINT rFoot
			{
				OFFSET 0.000000 -19.190928 -1.224953 
				CHANNELS 3 Xrotation Yrotation Zrotation
				End Site
				{
					OFFSET 0.000000 -2.449906 4.627600 
				}
			}
		}
	}
}
MOTION
Frames: 8
Frame Time: 0.033333
0.314045 36.048222 -0.049132 -5.607265 -16.312487 96.334946 0.000000 0.000000 0.000000 0.621716 8.280769 8.371268 -3.818462 -9.386106 -0.692892 -13.564957 10.510106 10.212423 0.092721 6.085549 24.664961 -75.115097 -9.174490 -9.413782 -55.465858 -4.685211 85.185791 -13.891362 -22.576969 -52.661633 -11.180811 -19.851595 20.362989 75.012856 22.993013 70.643867 22.822800 -32.675423 18.871031 37.574173 -7.570776 -81.232231 -61.510677 18.514135 13.150348 121.751236 18.491093 1.327298 2.300433 -3.411459 23.757236 -32.576870 -4.902053 0.963274 54.611526 4.239669 4.994438 26.957253 -13.113241 6.887664 
0.316523 33.925331 0.307149 -6.050903 -14.793826 95.425865 0.000000 0.000000 0.000000 3.467193 9.660354 8.650489 -5.801558 -10.244845 -0.748806 -14.647013 9.544991 11.785629 1.749135 7.351876 24.381329 -79.198502 -7.602038 -7.350997 -55.903912 -0.220759 87.019356 -11.948862 -25.309196 -52.840202 -9.527153 -21.730461 20.621180 76.624535 28.490973 70.299973 19.652281 -32.892384 25.711946 40.148323 -2.159296 -81.198669 -67.319160 20.075188 12.016125 132.784286 20.078262 2.102656 4.644042 -3.775026 11.959222 -36.373348 -3.925539 1.463918 65.805412 4.776131 6.162312 11.310093 -15.049731 -1.056659 
0.238042 32.993065 0.498512 -5.959764 -14.786473 93.966896 0.000000 0.000000 0.000000 4.445318 10.194497 8.758443 -7.093103 -11.232984 -0.824736 -15.279284 9.230720 13.164804 3.007350 6.491140 24.219032 -80.737137 -5.712204 -6.608637 -56.305511 2.663109 87.121735 -10.705709 -25.898849 -53.288811 -7.477006 -23.377165 21.185461 78.389885 33.678288 70.081718 17.013496 -33.173729 31.488760 42.113117 2.263863 -80.882507 -70.949120 20.913723 11.240136 136.187042 20.161297 2.297615 4.291335 -2.007970 11.550664 -40.257534 -3.876738 1.689981 72.267860 5.595668 6.905139 5.825204 -15.135760 -5.034164 
0.248031 33.259060 0.555059 -5.292429 -15.571353 93.257912 0.000000 0.000000 0.000000 3.744438 9.647718 8.637144 -7.470457 -11.984322 -0.883413 -14.482916 9.330795 13.663803 3.894427 5.279402 24.164415 -80.887573 -4.663646 -6.559791 -55.291416 3.589842 86.081047 -9.132915 -25.532375 -54.358540 -6.769460 -24.362892 21.346659 79.782364 36.835182 70.097633 16.256418 -33.728874 36.531654 44.025585 5.978079 -80.475159 -71.198151 21.170256 11.241945 132.664856 19.192202 1.908296 5.959090 -2.488206 12.574166 -40.822964 -4.589618 1.517308 71.501305 6.201133 6.972871 6.268963 -15.268766 -6.339564 
0.275044 34.480038 0.429799 -4.079331 -17.663013 93.952347 0.000000 0.000000 0.000000 0.976292 7.996901 8.290169 -7.298774 -12.282429 -0.899723 -12.300999 9.793456 12.973258 3.752512 6.771849 24.094770 -83.374756 -3.720723 -5.240391 -54.388393 4.250123 84.473724 -8.241523 -25.264673 -55.028625 -8.438023 -25.291733 20.461649 80.806679 37.170422 70.590309 18.903570 -35.198498 42.282070 46.718662 9.459876 -80.031631 -69.538826 19.784321 11.274331 123.463165 16.626625 0.958533 9.771943 -4.648379 15.972389 -39.284946 -6.122382 0.948346 64.793411 6.143402 6.378888 12.039638 -15.416072 -5.023942 
0.342220 36.350681 0.194784 -2.902066 -20.132477 95.237320 0.000000 0.000000 0.000000 -2.601327 5.824111 7.831927 -6.506365 -12.126973 -0.886314 -9.929215 10.791918 11.604973 3.419110 8.742510 24.027475 -86.055489 -2.221460 -3.799310 -54.772011 4.810750 82.396255 -8.782043 -24.635521 -54.953026 -10.764185 -26.022793 19.247858 81.103592 35.646919 71.121956 23.460012 -36.539310 46.534191 49.262573 10.471247 -80.077339 -65.377983 17.264326 11.697824 110.166199 13.120597 -0.180253 15.034986 -6.628700 17.160089 -35.883835 -7.293809 0.404328 53.792416 4.981874 5.064004 23.622551 -14.957601 0.939194 
0.386404 38.440022 -0.061410 -2.689280 -22.175190 96.063103 0.000000 0.000000 0.000000 -5.778070 4.304275 7.504818 -5.267476 -11.506559 -0.845974 -8.520607 11.540554 10.077312 3.591729 9.778357 23.932301 -87.395950 -1.565111 -3.062181 -54.524628 4.717880 82.353355 -9.685091 -24.336063 -54.578346 -12.255836 -25.330801 18.711128 79.883560 34.216919 70.772316 27.311445 -37.238720 50.154659 50.432335 10.842500 -80.123634 -59.510689 14.863006 12.575225 95.199501 9.725017 -1.094346 12.951879 -4.088936 27.887470 -33.158024 -8.074883 0.049883 43.696899 4.706568 4.024452 35.403812 -15.198509 2.660659 
0.434954 40.155910 -0.389167 -2.516967 -23.134312 96.142845 0.000000 0.000000 0.000000 -7.637149 2.952142 7.202012 -4.051247 -10.653036 -0.783324 -8.002153 12.191381 9.092590 3.550372 10.904720 23.868734 -88.339607 -2.042860 -2.536995 -52.310787 4.041421 82.043846 -9.477183 -22.116350 -55.168312 -12.888920 -23.115219 18.945498 77.186584 33.605759 69.413795 29.412672 -37.220413 53.194183 49.561920 12.041289 -79.619949 -52.111034 12.456615 13.753795 80.172783 7.286550 -1.523051 17.924070 -6.559462 20.949806 -32.664429 -9.589580 -0.436397 40.250713 5.077803 3.776779 42.513062 -14.185986 -0.287413 
